<?xml version="1.0" encoding="UTF-8"?><svg id="Layer_1" xmlns="http://www.w3.org/2000/svg" viewBox="0 0 32 32"><defs><style>.cls-1{fill:#e5b548;}</style></defs><path class="cls-1" d="M17.93,17.92c0-1.07,.03-1.97-.01-2.86-.04-.71,.2-1.02,.94-.98,.76,.05,1.53,.05,2.29-.02,.24-.02,.63-.35,.65-.56,.07-1.07,.03-2.14,.03-3.31-.43-.03-.76-.08-1.1-.08-3.17,0-6.33,.02-9.5-.02-.88-.01-1.15,.28-1.11,1.14,.04,.89,.27,2.18-.2,2.58-.56,.48-1.76,.24-2.69,.25-1.59,.02-3.19,0-4.96,0,0-1.34,0-2.58,0-3.82,0-1.04,.03-2.09,0-3.13-.03-.69,.25-.93,.91-.9,.96,.04,1.93,0,3.01,0,0-1.16,.02-2.16,0-3.16-.02-.58,.2-.81,.79-.81,6.02,.01,12.04,.01,18.05,0,.59,0,.81,.23,.78,.81-.03,.73,.03,1.46-.01,2.19-.04,.71,.19,1.02,.94,.98,.73-.04,1.46,.02,2.19-.01,.64-.03,.84,.25,.83,.87-.03,2.05-.03,4.11,0,6.16,0,.65-.25,.85-.86,.83-.76-.03-1.53,.01-2.3,0-.58-.02-.82,.21-.8,.8,.03,.96,0,1.93,0,3.04-1.06,0-1.99,.03-2.92-.01-.71-.03-1.03,.21-.98,.95,.04,.69-.01,1.39,.01,2.09,.02,.59-.16,.89-.82,.88-3.37-.02-6.75-.02-10.12,0-.63,0-.88-.22-.84-.85,.04-.69,.05-1.39,0-2.09-.05-.73,.24-.97,.96-.96,1.84,.04,3.69,.01,5.53,.01,.38,0,.75,0,1.32,0Z"/><path class="cls-1" d="M15.97,25.86c1.63,0,3.26,.03,4.89-.01,.74-.02,1.11,.18,1.05,.99-.05,.66-.05,1.32,0,1.98,.05,.75-.29,.94-.98,.94-3.3-.03-6.59-.02-9.89,0-.64,0-.97-.15-.93-.87,.05-.73,.04-1.46,0-2.18-.03-.65,.25-.84,.86-.84,1.66,.02,3.33,0,5,0Z"/></svg>